HIERARCHY
ROOT Hips
{
	OFFSET	0.00	0.00	0.00
	CHANNELS 6 Xposition Yposition Zposition Zrotation Xrotation Yrotation
	JOINT Spine
	{
		OFFSET	 0.00	0.01	 0.00
		CHANNELS 3 Zrotation Xrotation Yrotation
		JOINT Spine1
		{
			OFFSET	 0.00	 2.45913012437421	 0.00
			CHANNELS 3 Zrotation Xrotation Yrotation
            JOINT Neck
            {
                OFFSET	 0.00	 2.48462964506057	 0.00
                CHANNELS 3 Zrotation Xrotation Yrotation
                JOINT Head
                {
                    OFFSET	 0.00	 0.927524780924562	 0.00
                    CHANNELS 3 Zrotation Xrotation Yrotation
                    End Site 
                    {
                        OFFSET	 0.00	 1.14999962169752	 0.00
                    }
                }
            }
			JOINT LeftShoulder
			{
				OFFSET	 0.00	 2.48462964506057	 0.00
				CHANNELS 3 Zrotation Xrotation Yrotation
				JOINT LeftUpArm
				{
					OFFSET	 0.00	 1.24881979654096	 0.00
					CHANNELS 3 Zrotation Xrotation Yrotation
					JOINT LeftForeArm
					{
						OFFSET	 0.00	2.59758046908119	 0.00
						CHANNELS 3 Zrotation Xrotation Yrotation
						JOINT LeftHand
						{
							OFFSET	 0.00	2.45542024364365	 0.00
							CHANNELS 3 Zrotation Xrotation Yrotation
							JOINT LeftHandThumb 
							{
								OFFSET	 0.00	0.00	 0.00
								CHANNELS 3 Zrotation Xrotation Yrotation
								End Site
								{
									OFFSET	 0.00	0.00	1.00000003353624
								}
							}
							JOINT L_Wrist_End 
							{
								OFFSET	 0.00	0.99999967115358	 0.00
								CHANNELS 3 Zrotation Xrotation Yrotation
								End Site 
								{
									OFFSET	 0.00	 0.00	 0.00
								}
							}
						}
					}
				}
			}
			JOINT RightShoulder
			{
				OFFSET	 0.00	 2.48462964506057	 0.00
				CHANNELS 3 Zrotation Xrotation Yrotation
				JOINT RightUpArm
				{
					OFFSET	 0.00	 1.24881979654096	 0.00
					CHANNELS 3 Zrotation Xrotation Yrotation
					JOINT RightForeArm
					{
						OFFSET	 0.00	2.59758046908119	 0.00
						CHANNELS 3 Zrotation Xrotation Yrotation
						JOINT RightHand
						{
							OFFSET	 0.00	2.45542024364365	 0.00
							CHANNELS 3 Zrotation Xrotation Yrotation
							JOINT RightHandThumb 
							{
								OFFSET	 0.00	0.00	 0.00
								CHANNELS 3 Zrotation Xrotation Yrotation
								End Site
								{
									OFFSET	 0.00	0.00	1.00000003353624
								}
							}
							JOINT R_Wrist_End 
							{
								OFFSET	 0.00	0.99999967115358	 0.00
								CHANNELS 3 Zrotation Xrotation Yrotation
								End Site 
								{
									OFFSET	 0.00	 0.00	 0.00
								}
							}
						}
					}
				}
			}
		}
	}
	JOINT LeftUpLeg
	{
		OFFSET	 1.2719394002717	 0.00	 0.00
		CHANNELS 3 Zrotation Xrotation Yrotation
		JOINT LeftLowLeg
		{
			OFFSET	 0.00	-4.3429100912261	 0.00
			CHANNELS 3 Zrotation Xrotation Yrotation
			JOINT LeftFoot
			{
				OFFSET	 0.00	-4.48767017425826	 0.00
				CHANNELS 3 Zrotation Xrotation Yrotation
				JOINT LeftToeBase
                {
                    OFFSET	 0.00	0.00	 1.51507020887566
                    CHANNELS 3 Zrotation Xrotation Yrotation
                    End Site 
                    {
                        OFFSET	 0.00	0.00	 0.75000010571191
                    }
                }
			}
		}
	}
	JOINT RightUpLeg
	{
		OFFSET	 -1.2719393604653	 0.00	 0.00
		CHANNELS 3 Zrotation Xrotation Yrotation
		JOINT RightLowLeg
		{
			OFFSET	 0.00	-4.3429100912261	 0.00
			CHANNELS 3 Zrotation Xrotation Yrotation
			JOINT RightFoot
			{
				OFFSET	 0.00	-4.48767017425826	 0.00
				CHANNELS 3 Zrotation Xrotation Yrotation
				JOINT RightToeBase
                {
                    OFFSET	 0.00	0.00	 1.51507020887566
                    CHANNELS 3 Zrotation Xrotation Yrotation
                    End Site 
                    {
                        OFFSET	 0.00	0.00	 0.749999965609858
                    }
                }   
			}
		}
	}
}
MOTION 
Frames:	8 
Frame Time: 0.02 
  -0.460364990234375 7.759810180664062 9.10906005859375 26.1743 81.0518 124.153 -2.43417 -4.6278 -7.30767 10.9366 -8.19985 -6.00297 20.8431 46.7448 305.956 101.352 -57.6521 797.72 -120.5418 -0.0533927 9.43806 -34.093 29.3557 50.4712 0.0 107.359 0.0 22.8708 6.4174 -24.5547 0.0 0.0 0.0 0.0 0.0 0.0 107.461 -7.38726 -348.466 -18.1861 8.71372 28.0525 0.0 33.4834 0.0 7.96364 -0.544088 10.4203 0.0 0.0 0.0 0.0 0.0 0.0 1.84124 3.62012 -2.01709 0.0 15.47 0.0 -9.63409 -6.9347 -0.814863 0.0 -31.1134 0.0 9.76096 -18.9481 4.54485 0.0 4.8542 0.0 10.5526 13.40592 -13.1422 0.0 -42.6824 0.0 
  -0.35090198516845705 7.86593994140625 9.11583984375 26.4528 80.2675 124.116 -2.29547 -5.21024 -7.59369 11.4608 -8.36182 -6.30957 21.2232 46.9596 305.742 100.776 -57.6045 797.299 -121.0035 0.0226892 9.21257 -33.3719 28.2953 50.785 0.0 107.352 0.0 22.9148 6.58612 -24.1154 0.0 0.0 0.0 0.0 0.0 0.0 107.2472 -7.30613 -348.614 -17.8338 8.61828 27.8116 0.0 33.5758 0.0 7.9429 -0.306628 10.5348 0.0 0.0 0.0 0.0 0.0 0.0 2.72612 3.78781 -2.29044 0.0 16.1229 0.0 -10.1325 -7.0408993 -0.633294 0.0 -31.1545 0.0 10.6776 -18.6271 8.16911 0.0 4.95142 0.0 12.3865 14.53589 -14.1646 0.0 -42.6181 0.0 
  -0.23818300247192384 7.971580200195312 9.126010131835937 26.4117 79.6247 124.403 -2.28964 -5.66656 -7.88947 11.8951 -8.6918 -6.58482 21.7326 47.1632 305.454 100.081 -57.5176 796.717 -121.3385 0.21497 9.21591 -32.6538 27.0095 51.0676 0.0 107.311 0.0 23.1319 6.7033 -23.9679 0.0 0.0 0.0 0.0 0.0 0.0 107.0829 -7.25602 -348.759 -17.4212 8.43439 27.3947 0.0 33.7349 0.0 7.86633 -0.0310569 10.8815 0.0 0.0 0.0 0.0 0.0 0.0 3.49039 3.84287 -2.6583 0.0 17.0402 0.0 -10.8598 -6.907301 -0.526379 0.0 -30.9554 0.0 11.4654 -18.429 10.5364 0.0 5.38911 0.0 13.602 14.89932 -15.0402 0.0 -42.1065 0.0 
  -0.12246500015258789 8.075079956054687 9.138480224609374 26.1591 79.1323 124.999 -2.47227 -6.03459 -8.24173 12.3352 -9.11926 -6.87537 22.5767 47.1713 304.683 99.0199 -57.3573 796.282 -121.6082 0.546683 9.53139 -31.8248 25.5575 51.1861 0.0 107.16 0.0 23.6458 6.92353 -24.2609 0.0 0.0 0.0 0.0 0.0 0.0 106.8185 -7.21071 -348.7 -16.8976 8.23894 26.4364 0.0 34.0188 0.0 7.57031 -0.218829 11.3073 0.0 0.0 0.0 0.0 0.0 0.0 4.17089 3.73105 -3.14662 0.0 18.2741 0.0 -11.8542 -6.4974003 -0.677052 0.0 -31.0478 0.0 12.0398 -18.0957 11.5746 0.0 5.66996 0.0 15.1071 15.14646 -15.419 0.0 -41.7173 0.0 
  -0.004510599970817566 8.177139892578126 9.153079833984375 25.8809 78.7807 125.63 -2.78682 -6.31081 -8.59738 12.7206 -9.43932 -7.15826 22.8336 47.3059 304.719 98.5932 -57.3489 795.267 -121.8272 0.580051 10.3105 -32.6659 24.1461 49.8859 0.0 106.079 0.0 20.5789 7.68237 -24.4302 0.0 0.0 0.0 0.0 0.0 0.0 106.5171 -7.35619 -348.459 -16.2392 8.18885 25.6365 0.0 34.133 0.0 7.86438 -0.0326751 11.6692 0.0 0.0 0.0 0.0 0.0 0.0 4.81386 3.51681 -3.38203 0.0 19.773 0.0 -12.812 -5.7656 -1.19783 0.0 -30.8321 0.0 12.4651 -17.6037 11.5791 0.0 5.73022 0.0 15.1241 15.659059 -15.5497 0.0 -41.2629 0.0 
  0.11583000183105469 8.275230102539062 9.165980224609376 25.4955 78.5527 126.393 -3.33382 -6.40258 -9.00016 13.1377 -9.83535 -7.43707 23.9723 46.8638 303.645 97.334 -57.0093 794.589 -122.995804 0.704224 10.702 -29.4609 23.8944 50.7873 0.0 106.417 0.0 23.5306 6.25056 -25.8075 0.0 0.0 0.0 0.0 0.0 0.0 106.0876 -7.3643 -348.256 -15.5079 7.8961 24.5442 0.0 34.0836 0.0 7.92957 0.302817 11.78 0.0 0.0 0.0 0.0 0.0 0.0 5.40542 3.16598 -3.66722 0.0 21.5352 0.0 -13.7995 -4.811001 -1.90766 0.0 -31.3177 0.0 12.804 -17.0403 10.8487 0.0 5.8893 0.0 14.8564 15.3349 -15.1298 0.0 -39.6823 0.0 
  0.23356000900268556 8.371430053710938 9.17885986328125 25.5792 78.4601 126.642 -3.77262 -6.40469 -9.32595 13.3819 -10.05 -7.67605 24.913 46.3361 302.777 96.5663 -56.7007 793.863 -123.4724 0.740236 11.0408 -27.5876 23.3005 51.5185 0.0 106.451 0.0 25.2161 5.21896 -26.2258 0.0 0.0 0.0 0.0 0.0 0.0 105.8068 -7.45116 -348.181 -15.0429 7.5604 23.8162 0.0 33.9759 0.0 8.61869 0.914038 12.5086 0.0 0.0 0.0 0.0 0.0 0.0 5.92437 2.71974 -4.14937 0.0 23.7098 0.0 -15.1515 -3.4965992 -2.76422 0.0 -31.9508 0.0 13.101 -16.3115 10.0794 0.0 6.04556 0.0 14.1383 15.206401 -14.1467 0.0 -38.3444 0.0 
  0.3481439971923828 8.466849975585937 9.19291015625 26.2427 78.4297 126.209 -3.93229 -6.4025 -9.51157 13.3199 -10.0863 -7.83719 25.8526 45.7736 301.839 96.4244 -56.39 793.52 -123.203094 0.708098 11.3413 -27.247 22.2249 51.869 0.0 106.148 0.0 25.351 5.05522 -25.8773 0.0 0.0 0.0 0.0 0.0 0.0 105.7497 -7.66039 -348.208 -14.7686 7.20172 23.0734 0.0 34.0923 0.0 8.60192 1.28391 12.7354 0.0 0.0 0.0 0.0 0.0 0.0 6.4534 2.19451 -4.55238 0.0 26.2224 0.0 -15.7156 -2.0175 -3.4683 0.0 -32.4405 0.0 13.4491 -15.3896 9.69371 0.0 6.04526 0.0 13.264 15.32178 -13.7143 0.0 -37.7444 0.0 
